<?xml version="1.0" standalone="no"?>
<!DOCTYPE svg PUBLIC "-//W3C//DTD SVG 20010904//EN"
 "http://www.w3.org/TR/2001/REC-SVG-20010904/DTD/svg10.dtd">
<svg version="1.0" xmlns="http://www.w3.org/2000/svg"
 width="571.000000pt" height="571.000000pt" viewBox="0 0 571.000000 571.000000"
 preserveAspectRatio="xMidYMid meet">
<metadata>
Created by potrace 1.11, written by Peter Selinger 2001-2013
</metadata>
<g transform="translate(0.000000,571.000000) scale(0.100000,-0.100000)"
fill="#000000" stroke="none">
<path d="M2655 5704 c-272 -27 -477 -68 -688 -138 -428 -141 -777 -352 -1099
-664 -464 -450 -746 -1010 -844 -1677 -25 -168 -25 -572 0 -740 58 -395 179
-749 366 -1068 354 -605 906 -1052 1575 -1273 292 -96 558 -137 890 -137 332
0 598 41 890 137 1142 378 1916 1409 1961 2616 27 699 -223 1415 -682 1949
-345 403 -775 691 -1279 857 -291 95 -518 133 -835 139 -118 1 -233 1 -255 -1z
m-947 -1981 c17 -15 23 -37 31 -127 6 -60 11 -118 11 -129 0 -16 17 -4 73 49
85 83 141 122 238 169 97 46 162 58 294 53 94 -4 119 -9 173 -33 81 -36 161
-120 193 -204 l23 -59 91 86 c101 96 170 141 273 180 55 20 90 26 195 30 111
4 136 2 195 -17 160 -52 251 -176 281 -382 6 -41 13 -301 15 -578 4 -323 9
-507 16 -511 5 -3 53 -14 105 -25 l95 -18 0 -69 0 -68 -420 0 -420 0 0 68 0
69 95 18 c52 11 101 22 108 27 9 6 12 120 12 500 0 450 -2 498 -18 553 -35
113 -116 163 -247 152 -104 -9 -217 -61 -318 -146 l-23 -20 1 -506 c0 -286 4
-514 9 -524 7 -12 39 -23 105 -35 l96 -18 0 -69 0 -69 -420 0 -420 0 0 68 0
67 106 22 c58 12 108 24 110 26 3 2 6 215 7 473 2 514 -2 567 -53 647 -40 63
-85 82 -190 81 -67 0 -98 -5 -145 -25 -65 -27 -153 -82 -197 -124 l-28 -26 1
-337 c1 -185 4 -418 8 -517 l6 -179 98 -20 97 -19 0 -68 0 -69 -420 0 -420 0
0 69 0 68 63 13 c34 6 83 16 110 22 l47 10 0 546 c0 301 -4 553 -9 560 -5 8
-54 20 -125 29 l-116 16 0 63 0 62 87 34 c49 18 171 65 273 104 102 40 195 72
206 73 12 0 31 -7 42 -16z m3019 -1189 c55 -26 103 -79 128 -138 19 -45 19
-166 1 -211 -23 -53 -91 -120 -148 -145 -105 -45 -241 -13 -313 72 -93 110
-86 281 16 374 55 49 68 57 117 70 61 18 134 9 199 -22z"/>
</g>
</svg>
