<?xml version="1.0" standalone="no"?>
<!DOCTYPE svg PUBLIC "-//W3C//DTD SVG 20010904//EN"
 "http://www.w3.org/TR/2001/REC-SVG-20010904/DTD/svg10.dtd">
<svg version="1.0" xmlns="http://www.w3.org/2000/svg"
 width="300.000000pt" height="300.000000pt" viewBox="0 0 300.000000 300.000000"
 preserveAspectRatio="xMidYMid meet">
<metadata>
Created by potrace 1.11, written by Peter Selinger 2001-2013
</metadata>
<g transform="translate(0.000000,300.000000) scale(0.100000,-0.100000)"
fill="#000000" stroke="none">
<path d="M415 1987 l-190 -73 -1 -46 c-1 -26 1 -47 5 -46 20 5 152 -16 158
-25 8 -13 8 -741 -1 -755 -3 -6 -38 -16 -76 -22 l-70 -12 0 -49 0 -49 289 0
290 0 -2 48 -2 47 -67 15 -68 14 -1 56 c0 30 -1 190 -2 354 l-2 300 25 23 c63
60 173 102 248 96 83 -6 125 -51 140 -151 6 -38 8 -360 3 -623 l-1 -57 -47 -7
c-102 -17 -100 -16 -100 -69 l0 -46 287 0 288 0 -3 45 c-1 25 -4 47 -6 49 -2
2 -33 10 -68 17 l-65 14 -2 357 -3 357 35 29 c99 82 246 112 313 63 14 -9 34
-35 45 -57 20 -37 21 -57 24 -391 1 -193 -1 -354 -5 -356 -5 -3 -24 -8 -43
-11 -90 -15 -95 -18 -96 -69 l-1 -47 285 2 285 3 0 38 c-1 20 -2 41 -2 46 -1
5 -31 14 -67 21 -36 7 -67 18 -69 24 -3 6 -6 178 -7 381 -4 356 -4 372 -27
435 -44 125 -125 189 -253 198 -142 10 -268 -38 -374 -141 l-63 -62 -22 48
c-51 109 -156 164 -293 154 -123 -8 -231 -60 -322 -153 -24 -25 -44 -40 -45
-32 0 7 -2 22 -4 33 -2 11 -6 45 -9 75 -4 49 -23 81 -45 80 -3 -1 -91 -34
-196 -73z"/>
<path d="M2569 1243 c-52 -16 -65 -25 -103 -76 -55 -72 -37 -191 37 -248 97
-74 235 -42 287 67 67 144 -69 303 -221 257z"/>
</g>
</svg>
